<mxfile host="app.diagrams.net" agent="Mozilla/5.0 (Windows NT 10.0; Win64; x64; rv:133.0) Gecko/20100101 Firefox/133.0" version="25.0.3">
  <diagram name="Seite-1" id="GdJKFYjglcCsdlnulnRX">
    <mxGraphModel dx="1728" dy="929" grid="1" gridSize="10" guides="1" tooltips="1" connect="1" arrows="1" fold="1" page="1" pageScale="1" pageWidth="827" pageHeight="1169" math="0" shadow="0">
      <root>
        <mxCell id="0" />
        <mxCell id="1" parent="0" />
        <object label="default" btelligentShapeType="Satellite" btelligentLibrary="ELM" id="yP72qEaSYgZoqVM0F208-1">
          <mxCell style="group;verticalAlign=middle;align=left;spacingLeft=39;fillColor=#fff2cc;strokeColor=none;connectable=1;" vertex="1" connectable="0" parent="1">
            <mxGeometry x="80" y="720" width="160" height="60" as="geometry" />
          </mxCell>
        </object>
        <object label="" ELM="Satellite" id="yP72qEaSYgZoqVM0F208-2">
          <mxCell style="shape=delay;whiteSpace=wrap;html=1;rotation=-180;fillColor=none;strokeColor=#d6b656;backgroundOutline=0;connectable=0;noLabel=1;fillOpacity=100;strokeWidth=2;editable=0;" vertex="1" parent="yP72qEaSYgZoqVM0F208-1">
            <mxGeometry width="160" height="60" as="geometry" />
          </mxCell>
        </object>
        <mxCell id="yP72qEaSYgZoqVM0F208-3" value="" style="group;rotation=-45;movable=0;resizable=0;rotatable=0;deletable=0;editable=0;locked=1;connectable=0;" vertex="1" connectable="0" parent="yP72qEaSYgZoqVM0F208-1">
          <mxGeometry x="4" y="22" width="36" height="16" as="geometry" />
        </mxCell>
        <mxCell id="yP72qEaSYgZoqVM0F208-4" value="" style="rounded=0;whiteSpace=wrap;html=1;strokeColor=none;fillColor=#000000;rotation=-45;movable=0;resizable=0;rotatable=0;deletable=0;editable=0;locked=1;connectable=0;" vertex="1" parent="yP72qEaSYgZoqVM0F208-3">
          <mxGeometry x="13" y="1" width="6" height="10" as="geometry" />
        </mxCell>
        <mxCell id="yP72qEaSYgZoqVM0F208-5" value="" style="rounded=0;whiteSpace=wrap;html=1;strokeColor=none;fillColor=#000000;rotation=-45;movable=0;resizable=0;rotatable=0;deletable=0;editable=0;locked=1;connectable=0;" vertex="1" parent="yP72qEaSYgZoqVM0F208-3">
          <mxGeometry x="17" y="-5" width="14" height="6" as="geometry" />
        </mxCell>
        <mxCell id="yP72qEaSYgZoqVM0F208-6" value="" style="rounded=0;whiteSpace=wrap;html=1;strokeColor=none;fillColor=#000000;rotation=-45;movable=0;resizable=0;rotatable=0;deletable=0;editable=0;locked=1;connectable=0;" vertex="1" parent="yP72qEaSYgZoqVM0F208-3">
          <mxGeometry x="1" y="11" width="14" height="6" as="geometry" />
        </mxCell>
        <mxCell id="yP72qEaSYgZoqVM0F208-7" value="" style="triangle;whiteSpace=wrap;html=1;strokeColor=none;fillColor=#000000;rotation=-135;movable=0;resizable=0;rotatable=0;deletable=0;editable=0;locked=1;connectable=0;" vertex="1" parent="yP72qEaSYgZoqVM0F208-3">
          <mxGeometry x="16" width="6" height="18" as="geometry" />
        </mxCell>
        <mxCell id="yP72qEaSYgZoqVM0F208-8" value="" style="rounded=0;whiteSpace=wrap;html=1;strokeColor=none;fillColor=#000000;rotation=-45;movable=0;resizable=0;rotatable=0;deletable=0;editable=0;locked=1;connectable=0;" vertex="1" parent="yP72qEaSYgZoqVM0F208-3">
          <mxGeometry x="20" y="8" width="2" height="7" as="geometry" />
        </mxCell>
        <object label="Location" btelligentShapeType="Hub" btelligentLibrary="ELM" id="yP72qEaSYgZoqVM0F208-9">
          <mxCell style="group;verticalAlign=middle;align=left;spacingLeft=39;fillColor=#dae8fc;strokeColor=#6c8ebf;connectable=1;" vertex="1" connectable="0" parent="1">
            <mxGeometry x="280" y="720" width="160" height="60" as="geometry" />
          </mxCell>
        </object>
        <object label="" ELM="Hub" id="yP72qEaSYgZoqVM0F208-10">
          <mxCell style="rounded=0;whiteSpace=wrap;html=1;fillColor=none;strokeColor=#6c8ebf;strokeWidth=2;connectable=0;noLabel=1;editable=0;" vertex="1" parent="yP72qEaSYgZoqVM0F208-9">
            <mxGeometry width="160" height="60" as="geometry" />
          </mxCell>
        </object>
        <mxCell id="yP72qEaSYgZoqVM0F208-11" value="" style="group;movable=0;resizable=0;rotatable=0;deletable=0;editable=0;locked=1;connectable=0;" vertex="1" connectable="0" parent="yP72qEaSYgZoqVM0F208-9">
          <mxGeometry x="5" y="15" width="30" height="30" as="geometry" />
        </mxCell>
        <mxCell id="yP72qEaSYgZoqVM0F208-12" value="" style="verticalLabelPosition=bottom;verticalAlign=top;html=1;shape=mxgraph.flowchart.on-page_reference;strokeColor=none;fillColor=#000000;movable=0;resizable=0;rotatable=0;deletable=0;editable=0;locked=1;connectable=0;" vertex="1" parent="yP72qEaSYgZoqVM0F208-11">
          <mxGeometry width="30" height="30" as="geometry" />
        </mxCell>
        <mxCell id="yP72qEaSYgZoqVM0F208-13" value="" style="verticalLabelPosition=bottom;verticalAlign=top;html=1;shape=mxgraph.flowchart.on-page_reference;strokeColor=none;fillColor=#FFFFFF;movable=0;resizable=0;rotatable=0;deletable=0;editable=0;locked=1;connectable=0;" vertex="1" parent="yP72qEaSYgZoqVM0F208-11">
          <mxGeometry x="10" y="10" width="10" height="10" as="geometry" />
        </mxCell>
        <mxCell id="yP72qEaSYgZoqVM0F208-14" value="" style="triangle;whiteSpace=wrap;html=1;strokeColor=none;rounded=0;movable=0;resizable=0;rotatable=0;deletable=0;editable=0;locked=1;connectable=0;" vertex="1" parent="yP72qEaSYgZoqVM0F208-11">
          <mxGeometry x="22" y="10" width="6" height="10" as="geometry" />
        </mxCell>
        <mxCell id="yP72qEaSYgZoqVM0F208-15" value="" style="triangle;whiteSpace=wrap;html=1;rounded=0;rotation=-180;strokeColor=none;movable=0;resizable=0;rotatable=0;deletable=0;editable=0;locked=1;connectable=0;" vertex="1" parent="yP72qEaSYgZoqVM0F208-11">
          <mxGeometry x="2" y="10" width="6" height="10" as="geometry" />
        </mxCell>
        <mxCell id="yP72qEaSYgZoqVM0F208-16" value="" style="triangle;whiteSpace=wrap;html=1;rounded=0;rotation=90;strokeColor=none;movable=0;resizable=0;rotatable=0;deletable=0;editable=0;locked=1;connectable=0;" vertex="1" parent="yP72qEaSYgZoqVM0F208-11">
          <mxGeometry x="12" y="20" width="6" height="10" as="geometry" />
        </mxCell>
        <mxCell id="yP72qEaSYgZoqVM0F208-17" value="" style="triangle;whiteSpace=wrap;html=1;rounded=0;rotation=-90;strokeColor=none;movable=0;resizable=0;rotatable=0;deletable=0;editable=0;locked=1;connectable=0;" vertex="1" parent="yP72qEaSYgZoqVM0F208-11">
          <mxGeometry x="12" width="6" height="10" as="geometry" />
        </mxCell>
        <UserObject label="" btelligentShapeType="Sat-to-Hub" btelligentLibrary="ELM" id="yP72qEaSYgZoqVM0F208-18">
          <mxCell style="vsdxID=5;startArrow=none;endArrow=block;startSize=10;endSize=10;strokeColor=#4D4D4D;spacingTop=2;spacingBottom=2;spacingLeft=2;spacingRight=2;verticalAlign=middle;html=1;labelBackgroundColor=#FFFFFF;rounded=1;jumpStyle=arc;startFill=0;endFill=1;fontStyle=2;labelBorderColor=none;edgeStyle=orthogonalEdgeStyle;strokeWidth=2;" edge="1" source="yP72qEaSYgZoqVM0F208-1" target="yP72qEaSYgZoqVM0F208-9" parent="1">
            <mxGeometry relative="1" as="geometry">
              <mxPoint x="490" y="680" as="sourcePoint" />
              <mxPoint x="530" y="680" as="targetPoint" />
              <mxPoint as="offset" />
            </mxGeometry>
          </mxCell>
        </UserObject>
        <object label="default" btelligentShapeType="Satellite" btelligentLibrary="ELM" id="yP72qEaSYgZoqVM0F208-19">
          <mxCell style="group;verticalAlign=middle;align=left;spacingLeft=39;fillColor=#fff2cc;strokeColor=none;connectable=1;" vertex="1" connectable="0" parent="1">
            <mxGeometry x="960" y="720" width="160" height="60" as="geometry" />
          </mxCell>
        </object>
        <object label="" ELM="Satellite" id="yP72qEaSYgZoqVM0F208-20">
          <mxCell style="shape=delay;whiteSpace=wrap;html=1;rotation=-180;fillColor=none;strokeColor=#d6b656;backgroundOutline=0;connectable=0;noLabel=1;fillOpacity=100;strokeWidth=2;editable=0;" vertex="1" parent="yP72qEaSYgZoqVM0F208-19">
            <mxGeometry width="160" height="60" as="geometry" />
          </mxCell>
        </object>
        <mxCell id="yP72qEaSYgZoqVM0F208-21" value="" style="group;rotation=-45;movable=0;resizable=0;rotatable=0;deletable=0;editable=0;locked=1;connectable=0;" vertex="1" connectable="0" parent="yP72qEaSYgZoqVM0F208-19">
          <mxGeometry x="4" y="22" width="36" height="16" as="geometry" />
        </mxCell>
        <mxCell id="yP72qEaSYgZoqVM0F208-22" value="" style="rounded=0;whiteSpace=wrap;html=1;strokeColor=none;fillColor=#000000;rotation=-45;movable=0;resizable=0;rotatable=0;deletable=0;editable=0;locked=1;connectable=0;" vertex="1" parent="yP72qEaSYgZoqVM0F208-21">
          <mxGeometry x="13" y="1" width="6" height="10" as="geometry" />
        </mxCell>
        <mxCell id="yP72qEaSYgZoqVM0F208-23" value="" style="rounded=0;whiteSpace=wrap;html=1;strokeColor=none;fillColor=#000000;rotation=-45;movable=0;resizable=0;rotatable=0;deletable=0;editable=0;locked=1;connectable=0;" vertex="1" parent="yP72qEaSYgZoqVM0F208-21">
          <mxGeometry x="17" y="-5" width="14" height="6" as="geometry" />
        </mxCell>
        <mxCell id="yP72qEaSYgZoqVM0F208-24" value="" style="rounded=0;whiteSpace=wrap;html=1;strokeColor=none;fillColor=#000000;rotation=-45;movable=0;resizable=0;rotatable=0;deletable=0;editable=0;locked=1;connectable=0;" vertex="1" parent="yP72qEaSYgZoqVM0F208-21">
          <mxGeometry x="1" y="11" width="14" height="6" as="geometry" />
        </mxCell>
        <mxCell id="yP72qEaSYgZoqVM0F208-25" value="" style="triangle;whiteSpace=wrap;html=1;strokeColor=none;fillColor=#000000;rotation=-135;movable=0;resizable=0;rotatable=0;deletable=0;editable=0;locked=1;connectable=0;" vertex="1" parent="yP72qEaSYgZoqVM0F208-21">
          <mxGeometry x="16" width="6" height="18" as="geometry" />
        </mxCell>
        <mxCell id="yP72qEaSYgZoqVM0F208-26" value="" style="rounded=0;whiteSpace=wrap;html=1;strokeColor=none;fillColor=#000000;rotation=-45;movable=0;resizable=0;rotatable=0;deletable=0;editable=0;locked=1;connectable=0;" vertex="1" parent="yP72qEaSYgZoqVM0F208-21">
          <mxGeometry x="20" y="8" width="2" height="7" as="geometry" />
        </mxCell>
        <object label="Client" btelligentShapeType="Hub" btelligentLibrary="ELM" id="yP72qEaSYgZoqVM0F208-27">
          <mxCell style="group;verticalAlign=middle;align=left;spacingLeft=39;fillColor=#dae8fc;strokeColor=#6c8ebf;connectable=1;" vertex="1" connectable="0" parent="1">
            <mxGeometry x="760" y="720" width="160" height="60" as="geometry" />
          </mxCell>
        </object>
        <object label="" ELM="Hub" id="yP72qEaSYgZoqVM0F208-28">
          <mxCell style="rounded=0;whiteSpace=wrap;html=1;fillColor=none;strokeColor=#6c8ebf;strokeWidth=2;connectable=0;noLabel=1;editable=0;" vertex="1" parent="yP72qEaSYgZoqVM0F208-27">
            <mxGeometry width="160" height="60" as="geometry" />
          </mxCell>
        </object>
        <mxCell id="yP72qEaSYgZoqVM0F208-29" value="" style="group;movable=0;resizable=0;rotatable=0;deletable=0;editable=0;locked=1;connectable=0;" vertex="1" connectable="0" parent="yP72qEaSYgZoqVM0F208-27">
          <mxGeometry x="5" y="15" width="30" height="30" as="geometry" />
        </mxCell>
        <mxCell id="yP72qEaSYgZoqVM0F208-30" value="" style="verticalLabelPosition=bottom;verticalAlign=top;html=1;shape=mxgraph.flowchart.on-page_reference;strokeColor=none;fillColor=#000000;movable=0;resizable=0;rotatable=0;deletable=0;editable=0;locked=1;connectable=0;" vertex="1" parent="yP72qEaSYgZoqVM0F208-29">
          <mxGeometry width="30" height="30" as="geometry" />
        </mxCell>
        <mxCell id="yP72qEaSYgZoqVM0F208-31" value="" style="verticalLabelPosition=bottom;verticalAlign=top;html=1;shape=mxgraph.flowchart.on-page_reference;strokeColor=none;fillColor=#FFFFFF;movable=0;resizable=0;rotatable=0;deletable=0;editable=0;locked=1;connectable=0;" vertex="1" parent="yP72qEaSYgZoqVM0F208-29">
          <mxGeometry x="10" y="10" width="10" height="10" as="geometry" />
        </mxCell>
        <mxCell id="yP72qEaSYgZoqVM0F208-32" value="" style="triangle;whiteSpace=wrap;html=1;strokeColor=none;rounded=0;movable=0;resizable=0;rotatable=0;deletable=0;editable=0;locked=1;connectable=0;" vertex="1" parent="yP72qEaSYgZoqVM0F208-29">
          <mxGeometry x="22" y="10" width="6" height="10" as="geometry" />
        </mxCell>
        <mxCell id="yP72qEaSYgZoqVM0F208-33" value="" style="triangle;whiteSpace=wrap;html=1;rounded=0;rotation=-180;strokeColor=none;movable=0;resizable=0;rotatable=0;deletable=0;editable=0;locked=1;connectable=0;" vertex="1" parent="yP72qEaSYgZoqVM0F208-29">
          <mxGeometry x="2" y="10" width="6" height="10" as="geometry" />
        </mxCell>
        <mxCell id="yP72qEaSYgZoqVM0F208-34" value="" style="triangle;whiteSpace=wrap;html=1;rounded=0;rotation=90;strokeColor=none;movable=0;resizable=0;rotatable=0;deletable=0;editable=0;locked=1;connectable=0;" vertex="1" parent="yP72qEaSYgZoqVM0F208-29">
          <mxGeometry x="12" y="20" width="6" height="10" as="geometry" />
        </mxCell>
        <mxCell id="yP72qEaSYgZoqVM0F208-35" value="" style="triangle;whiteSpace=wrap;html=1;rounded=0;rotation=-90;strokeColor=none;movable=0;resizable=0;rotatable=0;deletable=0;editable=0;locked=1;connectable=0;" vertex="1" parent="yP72qEaSYgZoqVM0F208-29">
          <mxGeometry x="12" width="6" height="10" as="geometry" />
        </mxCell>
        <UserObject label="" btelligentShapeType="Sat-to-Hub" btelligentLibrary="ELM" id="yP72qEaSYgZoqVM0F208-36">
          <mxCell style="vsdxID=5;startArrow=none;endArrow=block;startSize=10;endSize=10;strokeColor=#4D4D4D;spacingTop=2;spacingBottom=2;spacingLeft=2;spacingRight=2;verticalAlign=middle;html=1;labelBackgroundColor=#FFFFFF;rounded=1;jumpStyle=arc;startFill=0;endFill=1;fontStyle=2;labelBorderColor=none;edgeStyle=orthogonalEdgeStyle;strokeWidth=2;" edge="1" source="yP72qEaSYgZoqVM0F208-19" target="yP72qEaSYgZoqVM0F208-27" parent="1">
            <mxGeometry relative="1" as="geometry">
              <mxPoint x="970" y="680" as="sourcePoint" />
              <mxPoint x="1010" y="680" as="targetPoint" />
              <mxPoint as="offset" />
            </mxGeometry>
          </mxCell>
        </UserObject>
        <object label="Link" btelligentShapeType="Link" btelligentLibrary="ELM" id="yP72qEaSYgZoqVM0F208-37">
          <mxCell style="group;verticalAlign=middle;align=left;spacingLeft=39;fillColor=#f8cecc;strokeColor=none;connectable=1;" vertex="1" connectable="0" parent="1">
            <mxGeometry x="520" y="720" width="160" height="60" as="geometry" />
          </mxCell>
        </object>
        <object label="" ELM="Link" id="yP72qEaSYgZoqVM0F208-38">
          <mxCell style="rounded=1;whiteSpace=wrap;html=1;fillColor=none;strokeColor=#b85450;strokeWidth=2;arcSize=24;noLabel=1;connectable=0;editable=0;" vertex="1" parent="yP72qEaSYgZoqVM0F208-37">
            <mxGeometry width="160" height="60" as="geometry" />
          </mxCell>
        </object>
        <mxCell id="yP72qEaSYgZoqVM0F208-39" value="" style="group;rotation=60;movable=0;resizable=0;rotatable=0;deletable=0;editable=0;locked=1;connectable=0;" vertex="1" connectable="0" parent="yP72qEaSYgZoqVM0F208-37">
          <mxGeometry y="25" width="38" height="10" as="geometry" />
        </mxCell>
        <mxCell id="yP72qEaSYgZoqVM0F208-40" value="" style="strokeWidth=2;html=1;shape=mxgraph.flowchart.terminator;whiteSpace=wrap;rotation=60;movable=0;resizable=0;rotatable=0;deletable=0;editable=0;locked=1;connectable=0;" vertex="1" parent="yP72qEaSYgZoqVM0F208-39">
          <mxGeometry x="6" y="-10" width="16" height="10" as="geometry" />
        </mxCell>
        <mxCell id="yP72qEaSYgZoqVM0F208-41" value="" style="strokeWidth=2;html=1;shape=mxgraph.flowchart.terminator;whiteSpace=wrap;rotation=60;movable=0;resizable=0;rotatable=0;deletable=0;editable=0;locked=1;connectable=0;" vertex="1" parent="yP72qEaSYgZoqVM0F208-39">
          <mxGeometry x="17" y="10" width="16" height="10" as="geometry" />
        </mxCell>
        <mxCell id="yP72qEaSYgZoqVM0F208-42" value="" style="verticalLabelPosition=bottom;verticalAlign=top;html=1;shape=mxgraph.basic.rect;fillColor2=none;strokeWidth=1;size=20;indent=5;fillColor=#FFFFFF;strokeColor=none;rotation=60;movable=0;resizable=0;rotatable=0;deletable=0;editable=0;locked=1;connectable=0;" vertex="1" parent="yP72qEaSYgZoqVM0F208-39">
          <mxGeometry x="9" y="2" width="20" height="6" as="geometry" />
        </mxCell>
        <mxCell id="yP72qEaSYgZoqVM0F208-43" value="" style="strokeWidth=3;html=1;shape=mxgraph.flowchart.terminator;whiteSpace=wrap;rotation=60;movable=0;resizable=0;rotatable=0;deletable=0;editable=0;locked=1;connectable=0;" vertex="1" parent="yP72qEaSYgZoqVM0F208-39">
          <mxGeometry x="11" y="4" width="16" height="2" as="geometry" />
        </mxCell>
        <object label="default" btelligentShapeType="Satellite" btelligentLibrary="ELM" id="yP72qEaSYgZoqVM0F208-44">
          <mxCell style="group;verticalAlign=middle;align=left;spacingLeft=39;fillColor=#fff2cc;strokeColor=none;connectable=1;" vertex="1" connectable="0" parent="1">
            <mxGeometry x="720" y="880" width="160" height="60" as="geometry" />
          </mxCell>
        </object>
        <object label="" ELM="Satellite" id="yP72qEaSYgZoqVM0F208-45">
          <mxCell style="shape=delay;whiteSpace=wrap;html=1;rotation=-180;fillColor=none;strokeColor=#d6b656;backgroundOutline=0;connectable=0;noLabel=1;fillOpacity=100;strokeWidth=2;editable=0;" vertex="1" parent="yP72qEaSYgZoqVM0F208-44">
            <mxGeometry width="160" height="60" as="geometry" />
          </mxCell>
        </object>
        <mxCell id="yP72qEaSYgZoqVM0F208-46" value="" style="group;rotation=-45;movable=0;resizable=0;rotatable=0;deletable=0;editable=0;locked=1;connectable=0;" vertex="1" connectable="0" parent="yP72qEaSYgZoqVM0F208-44">
          <mxGeometry x="4" y="22" width="36" height="16" as="geometry" />
        </mxCell>
        <mxCell id="yP72qEaSYgZoqVM0F208-47" value="" style="rounded=0;whiteSpace=wrap;html=1;strokeColor=none;fillColor=#000000;rotation=-45;movable=0;resizable=0;rotatable=0;deletable=0;editable=0;locked=1;connectable=0;" vertex="1" parent="yP72qEaSYgZoqVM0F208-46">
          <mxGeometry x="13" y="1" width="6" height="10" as="geometry" />
        </mxCell>
        <mxCell id="yP72qEaSYgZoqVM0F208-48" value="" style="rounded=0;whiteSpace=wrap;html=1;strokeColor=none;fillColor=#000000;rotation=-45;movable=0;resizable=0;rotatable=0;deletable=0;editable=0;locked=1;connectable=0;" vertex="1" parent="yP72qEaSYgZoqVM0F208-46">
          <mxGeometry x="17" y="-5" width="14" height="6" as="geometry" />
        </mxCell>
        <mxCell id="yP72qEaSYgZoqVM0F208-49" value="" style="rounded=0;whiteSpace=wrap;html=1;strokeColor=none;fillColor=#000000;rotation=-45;movable=0;resizable=0;rotatable=0;deletable=0;editable=0;locked=1;connectable=0;" vertex="1" parent="yP72qEaSYgZoqVM0F208-46">
          <mxGeometry x="1" y="11" width="14" height="6" as="geometry" />
        </mxCell>
        <mxCell id="yP72qEaSYgZoqVM0F208-50" value="" style="triangle;whiteSpace=wrap;html=1;strokeColor=none;fillColor=#000000;rotation=-135;movable=0;resizable=0;rotatable=0;deletable=0;editable=0;locked=1;connectable=0;" vertex="1" parent="yP72qEaSYgZoqVM0F208-46">
          <mxGeometry x="16" width="6" height="18" as="geometry" />
        </mxCell>
        <mxCell id="yP72qEaSYgZoqVM0F208-51" value="" style="rounded=0;whiteSpace=wrap;html=1;strokeColor=none;fillColor=#000000;rotation=-45;movable=0;resizable=0;rotatable=0;deletable=0;editable=0;locked=1;connectable=0;" vertex="1" parent="yP72qEaSYgZoqVM0F208-46">
          <mxGeometry x="20" y="8" width="2" height="7" as="geometry" />
        </mxCell>
        <object label="Advice" btelligentShapeType="Hub" btelligentLibrary="ELM" id="yP72qEaSYgZoqVM0F208-52">
          <mxCell style="group;verticalAlign=middle;align=left;spacingLeft=39;fillColor=#dae8fc;strokeColor=#6c8ebf;connectable=1;" vertex="1" connectable="0" parent="1">
            <mxGeometry x="520" y="880" width="160" height="60" as="geometry" />
          </mxCell>
        </object>
        <object label="" ELM="Hub" id="yP72qEaSYgZoqVM0F208-53">
          <mxCell style="rounded=0;whiteSpace=wrap;html=1;fillColor=none;strokeColor=#6c8ebf;strokeWidth=2;connectable=0;noLabel=1;editable=0;" vertex="1" parent="yP72qEaSYgZoqVM0F208-52">
            <mxGeometry width="160" height="60" as="geometry" />
          </mxCell>
        </object>
        <mxCell id="yP72qEaSYgZoqVM0F208-54" value="" style="group;movable=0;resizable=0;rotatable=0;deletable=0;editable=0;locked=1;connectable=0;" vertex="1" connectable="0" parent="yP72qEaSYgZoqVM0F208-52">
          <mxGeometry x="5" y="15" width="30" height="30" as="geometry" />
        </mxCell>
        <mxCell id="yP72qEaSYgZoqVM0F208-55" value="" style="verticalLabelPosition=bottom;verticalAlign=top;html=1;shape=mxgraph.flowchart.on-page_reference;strokeColor=none;fillColor=#000000;movable=0;resizable=0;rotatable=0;deletable=0;editable=0;locked=1;connectable=0;" vertex="1" parent="yP72qEaSYgZoqVM0F208-54">
          <mxGeometry width="30" height="30" as="geometry" />
        </mxCell>
        <mxCell id="yP72qEaSYgZoqVM0F208-56" value="" style="verticalLabelPosition=bottom;verticalAlign=top;html=1;shape=mxgraph.flowchart.on-page_reference;strokeColor=none;fillColor=#FFFFFF;movable=0;resizable=0;rotatable=0;deletable=0;editable=0;locked=1;connectable=0;" vertex="1" parent="yP72qEaSYgZoqVM0F208-54">
          <mxGeometry x="10" y="10" width="10" height="10" as="geometry" />
        </mxCell>
        <mxCell id="yP72qEaSYgZoqVM0F208-57" value="" style="triangle;whiteSpace=wrap;html=1;strokeColor=none;rounded=0;movable=0;resizable=0;rotatable=0;deletable=0;editable=0;locked=1;connectable=0;" vertex="1" parent="yP72qEaSYgZoqVM0F208-54">
          <mxGeometry x="22" y="10" width="6" height="10" as="geometry" />
        </mxCell>
        <mxCell id="yP72qEaSYgZoqVM0F208-58" value="" style="triangle;whiteSpace=wrap;html=1;rounded=0;rotation=-180;strokeColor=none;movable=0;resizable=0;rotatable=0;deletable=0;editable=0;locked=1;connectable=0;" vertex="1" parent="yP72qEaSYgZoqVM0F208-54">
          <mxGeometry x="2" y="10" width="6" height="10" as="geometry" />
        </mxCell>
        <mxCell id="yP72qEaSYgZoqVM0F208-59" value="" style="triangle;whiteSpace=wrap;html=1;rounded=0;rotation=90;strokeColor=none;movable=0;resizable=0;rotatable=0;deletable=0;editable=0;locked=1;connectable=0;" vertex="1" parent="yP72qEaSYgZoqVM0F208-54">
          <mxGeometry x="12" y="20" width="6" height="10" as="geometry" />
        </mxCell>
        <mxCell id="yP72qEaSYgZoqVM0F208-60" value="" style="triangle;whiteSpace=wrap;html=1;rounded=0;rotation=-90;strokeColor=none;movable=0;resizable=0;rotatable=0;deletable=0;editable=0;locked=1;connectable=0;" vertex="1" parent="yP72qEaSYgZoqVM0F208-54">
          <mxGeometry x="12" width="6" height="10" as="geometry" />
        </mxCell>
        <UserObject label="" btelligentShapeType="Sat-to-Hub" btelligentLibrary="ELM" id="yP72qEaSYgZoqVM0F208-61">
          <mxCell style="vsdxID=5;startArrow=none;endArrow=block;startSize=10;endSize=10;strokeColor=#4D4D4D;spacingTop=2;spacingBottom=2;spacingLeft=2;spacingRight=2;verticalAlign=middle;html=1;labelBackgroundColor=#FFFFFF;rounded=1;jumpStyle=arc;startFill=0;endFill=1;fontStyle=2;labelBorderColor=none;edgeStyle=orthogonalEdgeStyle;strokeWidth=2;" edge="1" source="yP72qEaSYgZoqVM0F208-44" target="yP72qEaSYgZoqVM0F208-52" parent="1">
            <mxGeometry relative="1" as="geometry">
              <mxPoint x="730" y="840" as="sourcePoint" />
              <mxPoint x="770" y="840" as="targetPoint" />
              <mxPoint as="offset" />
            </mxGeometry>
          </mxCell>
        </UserObject>
        <object label="" btelligentShapeType="Hub-to-Link-1" btelligentLibrary="ELM" id="yP72qEaSYgZoqVM0F208-62">
          <mxCell style="endArrow=ERone;html=1;rounded=1;endSize=20;endFill=0;edgeStyle=orthogonalEdgeStyle;strokeWidth=2;strokeColor=#4D4D4D;" edge="1" parent="1" source="yP72qEaSYgZoqVM0F208-52" target="yP72qEaSYgZoqVM0F208-37">
            <mxGeometry width="50" height="50" relative="1" as="geometry">
              <mxPoint x="490" y="740" as="sourcePoint" />
              <mxPoint x="490" y="680" as="targetPoint" />
            </mxGeometry>
          </mxCell>
        </object>
        <object label="" btelligentShapeType="Hub-to-Link-N" btelligentLibrary="ELM" id="yP72qEaSYgZoqVM0F208-64">
          <mxCell style="endArrow=ERmany;html=1;rounded=1;endSize=20;endFill=0;edgeStyle=orthogonalEdgeStyle;curved=0;strokeWidth=2;strokeColor=#4D4D4D;" edge="1" parent="1" source="yP72qEaSYgZoqVM0F208-27" target="yP72qEaSYgZoqVM0F208-37">
            <mxGeometry width="50" height="50" relative="1" as="geometry">
              <mxPoint x="410" y="760" as="sourcePoint" />
              <mxPoint x="530" y="760" as="targetPoint" />
            </mxGeometry>
          </mxCell>
        </object>
        <object label="default" btelligentShapeType="Satellite" btelligentLibrary="ELM" id="yP72qEaSYgZoqVM0F208-65">
          <mxCell style="group;verticalAlign=middle;align=left;spacingLeft=39;fillColor=#fff2cc;strokeColor=none;connectable=1;" vertex="1" connectable="0" parent="1">
            <mxGeometry x="520" y="1260" width="160" height="60" as="geometry" />
          </mxCell>
        </object>
        <object label="" ELM="Satellite" id="yP72qEaSYgZoqVM0F208-66">
          <mxCell style="shape=delay;whiteSpace=wrap;html=1;rotation=-180;fillColor=none;strokeColor=#d6b656;backgroundOutline=0;connectable=0;noLabel=1;fillOpacity=100;strokeWidth=2;editable=0;" vertex="1" parent="yP72qEaSYgZoqVM0F208-65">
            <mxGeometry width="160" height="60" as="geometry" />
          </mxCell>
        </object>
        <mxCell id="yP72qEaSYgZoqVM0F208-67" value="" style="group;rotation=-45;movable=0;resizable=0;rotatable=0;deletable=0;editable=0;locked=1;connectable=0;" vertex="1" connectable="0" parent="yP72qEaSYgZoqVM0F208-65">
          <mxGeometry x="4" y="22" width="36" height="16" as="geometry" />
        </mxCell>
        <mxCell id="yP72qEaSYgZoqVM0F208-68" value="" style="rounded=0;whiteSpace=wrap;html=1;strokeColor=none;fillColor=#000000;rotation=-45;movable=0;resizable=0;rotatable=0;deletable=0;editable=0;locked=1;connectable=0;" vertex="1" parent="yP72qEaSYgZoqVM0F208-67">
          <mxGeometry x="13" y="1" width="6" height="10" as="geometry" />
        </mxCell>
        <mxCell id="yP72qEaSYgZoqVM0F208-69" value="" style="rounded=0;whiteSpace=wrap;html=1;strokeColor=none;fillColor=#000000;rotation=-45;movable=0;resizable=0;rotatable=0;deletable=0;editable=0;locked=1;connectable=0;" vertex="1" parent="yP72qEaSYgZoqVM0F208-67">
          <mxGeometry x="17" y="-5" width="14" height="6" as="geometry" />
        </mxCell>
        <mxCell id="yP72qEaSYgZoqVM0F208-70" value="" style="rounded=0;whiteSpace=wrap;html=1;strokeColor=none;fillColor=#000000;rotation=-45;movable=0;resizable=0;rotatable=0;deletable=0;editable=0;locked=1;connectable=0;" vertex="1" parent="yP72qEaSYgZoqVM0F208-67">
          <mxGeometry x="1" y="11" width="14" height="6" as="geometry" />
        </mxCell>
        <mxCell id="yP72qEaSYgZoqVM0F208-71" value="" style="triangle;whiteSpace=wrap;html=1;strokeColor=none;fillColor=#000000;rotation=-135;movable=0;resizable=0;rotatable=0;deletable=0;editable=0;locked=1;connectable=0;" vertex="1" parent="yP72qEaSYgZoqVM0F208-67">
          <mxGeometry x="16" width="6" height="18" as="geometry" />
        </mxCell>
        <mxCell id="yP72qEaSYgZoqVM0F208-72" value="" style="rounded=0;whiteSpace=wrap;html=1;strokeColor=none;fillColor=#000000;rotation=-45;movable=0;resizable=0;rotatable=0;deletable=0;editable=0;locked=1;connectable=0;" vertex="1" parent="yP72qEaSYgZoqVM0F208-67">
          <mxGeometry x="20" y="8" width="2" height="7" as="geometry" />
        </mxCell>
        <object label="Advice Line" btelligentShapeType="Hub" btelligentLibrary="ELM" id="yP72qEaSYgZoqVM0F208-73">
          <mxCell style="group;verticalAlign=middle;align=left;spacingLeft=39;fillColor=#dae8fc;strokeColor=#6c8ebf;connectable=1;" vertex="1" connectable="0" parent="1">
            <mxGeometry x="520" y="1160" width="160" height="60" as="geometry" />
          </mxCell>
        </object>
        <object label="" ELM="Hub" id="yP72qEaSYgZoqVM0F208-74">
          <mxCell style="rounded=0;whiteSpace=wrap;html=1;fillColor=none;strokeColor=#6c8ebf;strokeWidth=2;connectable=0;noLabel=1;editable=0;" vertex="1" parent="yP72qEaSYgZoqVM0F208-73">
            <mxGeometry width="160" height="60" as="geometry" />
          </mxCell>
        </object>
        <mxCell id="yP72qEaSYgZoqVM0F208-75" value="" style="group;movable=0;resizable=0;rotatable=0;deletable=0;editable=0;locked=1;connectable=0;" vertex="1" connectable="0" parent="yP72qEaSYgZoqVM0F208-73">
          <mxGeometry x="5" y="15" width="30" height="30" as="geometry" />
        </mxCell>
        <mxCell id="yP72qEaSYgZoqVM0F208-76" value="" style="verticalLabelPosition=bottom;verticalAlign=top;html=1;shape=mxgraph.flowchart.on-page_reference;strokeColor=none;fillColor=#000000;movable=0;resizable=0;rotatable=0;deletable=0;editable=0;locked=1;connectable=0;" vertex="1" parent="yP72qEaSYgZoqVM0F208-75">
          <mxGeometry width="30" height="30" as="geometry" />
        </mxCell>
        <mxCell id="yP72qEaSYgZoqVM0F208-77" value="" style="verticalLabelPosition=bottom;verticalAlign=top;html=1;shape=mxgraph.flowchart.on-page_reference;strokeColor=none;fillColor=#FFFFFF;movable=0;resizable=0;rotatable=0;deletable=0;editable=0;locked=1;connectable=0;" vertex="1" parent="yP72qEaSYgZoqVM0F208-75">
          <mxGeometry x="10" y="10" width="10" height="10" as="geometry" />
        </mxCell>
        <mxCell id="yP72qEaSYgZoqVM0F208-78" value="" style="triangle;whiteSpace=wrap;html=1;strokeColor=none;rounded=0;movable=0;resizable=0;rotatable=0;deletable=0;editable=0;locked=1;connectable=0;" vertex="1" parent="yP72qEaSYgZoqVM0F208-75">
          <mxGeometry x="22" y="10" width="6" height="10" as="geometry" />
        </mxCell>
        <mxCell id="yP72qEaSYgZoqVM0F208-79" value="" style="triangle;whiteSpace=wrap;html=1;rounded=0;rotation=-180;strokeColor=none;movable=0;resizable=0;rotatable=0;deletable=0;editable=0;locked=1;connectable=0;" vertex="1" parent="yP72qEaSYgZoqVM0F208-75">
          <mxGeometry x="2" y="10" width="6" height="10" as="geometry" />
        </mxCell>
        <mxCell id="yP72qEaSYgZoqVM0F208-80" value="" style="triangle;whiteSpace=wrap;html=1;rounded=0;rotation=90;strokeColor=none;movable=0;resizable=0;rotatable=0;deletable=0;editable=0;locked=1;connectable=0;" vertex="1" parent="yP72qEaSYgZoqVM0F208-75">
          <mxGeometry x="12" y="20" width="6" height="10" as="geometry" />
        </mxCell>
        <mxCell id="yP72qEaSYgZoqVM0F208-81" value="" style="triangle;whiteSpace=wrap;html=1;rounded=0;rotation=-90;strokeColor=none;movable=0;resizable=0;rotatable=0;deletable=0;editable=0;locked=1;connectable=0;" vertex="1" parent="yP72qEaSYgZoqVM0F208-75">
          <mxGeometry x="12" width="6" height="10" as="geometry" />
        </mxCell>
        <UserObject label="" btelligentShapeType="Sat-to-Hub" btelligentLibrary="ELM" id="yP72qEaSYgZoqVM0F208-82">
          <mxCell style="vsdxID=5;startArrow=none;endArrow=block;startSize=10;endSize=10;strokeColor=#4D4D4D;spacingTop=2;spacingBottom=2;spacingLeft=2;spacingRight=2;verticalAlign=middle;html=1;labelBackgroundColor=#FFFFFF;rounded=1;jumpStyle=arc;startFill=0;endFill=1;fontStyle=2;labelBorderColor=none;edgeStyle=orthogonalEdgeStyle;strokeWidth=2;" edge="1" source="yP72qEaSYgZoqVM0F208-65" target="yP72qEaSYgZoqVM0F208-73" parent="1">
            <mxGeometry relative="1" as="geometry">
              <mxPoint x="730" y="1120" as="sourcePoint" />
              <mxPoint x="770" y="1120" as="targetPoint" />
              <mxPoint as="offset" />
            </mxGeometry>
          </mxCell>
        </UserObject>
        <object label="Link" btelligentShapeType="Link" btelligentLibrary="ELM" id="yP72qEaSYgZoqVM0F208-83">
          <mxCell style="group;verticalAlign=middle;align=left;spacingLeft=39;fillColor=#f8cecc;strokeColor=none;connectable=1;" vertex="1" connectable="0" parent="1">
            <mxGeometry x="520" y="1020" width="160" height="60" as="geometry" />
          </mxCell>
        </object>
        <object label="" ELM="Link" id="yP72qEaSYgZoqVM0F208-84">
          <mxCell style="rounded=1;whiteSpace=wrap;html=1;fillColor=none;strokeColor=#b85450;strokeWidth=2;arcSize=24;noLabel=1;connectable=0;editable=0;" vertex="1" parent="yP72qEaSYgZoqVM0F208-83">
            <mxGeometry width="160" height="60" as="geometry" />
          </mxCell>
        </object>
        <mxCell id="yP72qEaSYgZoqVM0F208-85" value="" style="group;rotation=60;movable=0;resizable=0;rotatable=0;deletable=0;editable=0;locked=1;connectable=0;" vertex="1" connectable="0" parent="yP72qEaSYgZoqVM0F208-83">
          <mxGeometry y="25" width="38" height="10" as="geometry" />
        </mxCell>
        <mxCell id="yP72qEaSYgZoqVM0F208-86" value="" style="strokeWidth=2;html=1;shape=mxgraph.flowchart.terminator;whiteSpace=wrap;rotation=60;movable=0;resizable=0;rotatable=0;deletable=0;editable=0;locked=1;connectable=0;" vertex="1" parent="yP72qEaSYgZoqVM0F208-85">
          <mxGeometry x="6" y="-10" width="16" height="10" as="geometry" />
        </mxCell>
        <mxCell id="yP72qEaSYgZoqVM0F208-87" value="" style="strokeWidth=2;html=1;shape=mxgraph.flowchart.terminator;whiteSpace=wrap;rotation=60;movable=0;resizable=0;rotatable=0;deletable=0;editable=0;locked=1;connectable=0;" vertex="1" parent="yP72qEaSYgZoqVM0F208-85">
          <mxGeometry x="17" y="10" width="16" height="10" as="geometry" />
        </mxCell>
        <mxCell id="yP72qEaSYgZoqVM0F208-88" value="" style="verticalLabelPosition=bottom;verticalAlign=top;html=1;shape=mxgraph.basic.rect;fillColor2=none;strokeWidth=1;size=20;indent=5;fillColor=#FFFFFF;strokeColor=none;rotation=60;movable=0;resizable=0;rotatable=0;deletable=0;editable=0;locked=1;connectable=0;" vertex="1" parent="yP72qEaSYgZoqVM0F208-85">
          <mxGeometry x="9" y="2" width="20" height="6" as="geometry" />
        </mxCell>
        <mxCell id="yP72qEaSYgZoqVM0F208-89" value="" style="strokeWidth=3;html=1;shape=mxgraph.flowchart.terminator;whiteSpace=wrap;rotation=60;movable=0;resizable=0;rotatable=0;deletable=0;editable=0;locked=1;connectable=0;" vertex="1" parent="yP72qEaSYgZoqVM0F208-85">
          <mxGeometry x="11" y="4" width="16" height="2" as="geometry" />
        </mxCell>
        <object label="" btelligentShapeType="Hub-to-Link-N" btelligentLibrary="ELM" id="yP72qEaSYgZoqVM0F208-90">
          <mxCell style="endArrow=ERmany;html=1;rounded=1;endSize=20;endFill=0;edgeStyle=orthogonalEdgeStyle;curved=0;strokeWidth=2;strokeColor=#4D4D4D;" edge="1" parent="1" source="yP72qEaSYgZoqVM0F208-52" target="yP72qEaSYgZoqVM0F208-83">
            <mxGeometry width="50" height="50" relative="1" as="geometry">
              <mxPoint x="490" y="1070" as="sourcePoint" />
              <mxPoint x="490" y="1130" as="targetPoint" />
            </mxGeometry>
          </mxCell>
        </object>
        <object label="" btelligentShapeType="Hub-to-Link-1" btelligentLibrary="ELM" id="yP72qEaSYgZoqVM0F208-91">
          <mxCell style="endArrow=ERone;html=1;rounded=1;endSize=20;endFill=0;edgeStyle=orthogonalEdgeStyle;strokeWidth=2;strokeColor=#4D4D4D;" edge="1" parent="1" source="yP72qEaSYgZoqVM0F208-73" target="yP72qEaSYgZoqVM0F208-83">
            <mxGeometry width="50" height="50" relative="1" as="geometry">
              <mxPoint x="490" y="1130" as="sourcePoint" />
              <mxPoint x="490" y="1070" as="targetPoint" />
            </mxGeometry>
          </mxCell>
        </object>
        <object label="default" btelligentShapeType="Satellite" btelligentLibrary="ELM" id="yP72qEaSYgZoqVM0F208-92">
          <mxCell style="group;verticalAlign=middle;align=left;spacingLeft=39;fillColor=#fff2cc;strokeColor=none;connectable=1;" vertex="1" connectable="0" parent="1">
            <mxGeometry x="1000" y="1260" width="160" height="60" as="geometry" />
          </mxCell>
        </object>
        <object label="" ELM="Satellite" id="yP72qEaSYgZoqVM0F208-93">
          <mxCell style="shape=delay;whiteSpace=wrap;html=1;rotation=-180;fillColor=none;strokeColor=#d6b656;backgroundOutline=0;connectable=0;noLabel=1;fillOpacity=100;strokeWidth=2;editable=0;" vertex="1" parent="yP72qEaSYgZoqVM0F208-92">
            <mxGeometry width="160" height="60" as="geometry" />
          </mxCell>
        </object>
        <mxCell id="yP72qEaSYgZoqVM0F208-94" value="" style="group;rotation=-45;movable=0;resizable=0;rotatable=0;deletable=0;editable=0;locked=1;connectable=0;" vertex="1" connectable="0" parent="yP72qEaSYgZoqVM0F208-92">
          <mxGeometry x="4" y="22" width="36" height="16" as="geometry" />
        </mxCell>
        <mxCell id="yP72qEaSYgZoqVM0F208-95" value="" style="rounded=0;whiteSpace=wrap;html=1;strokeColor=none;fillColor=#000000;rotation=-45;movable=0;resizable=0;rotatable=0;deletable=0;editable=0;locked=1;connectable=0;" vertex="1" parent="yP72qEaSYgZoqVM0F208-94">
          <mxGeometry x="13" y="1" width="6" height="10" as="geometry" />
        </mxCell>
        <mxCell id="yP72qEaSYgZoqVM0F208-96" value="" style="rounded=0;whiteSpace=wrap;html=1;strokeColor=none;fillColor=#000000;rotation=-45;movable=0;resizable=0;rotatable=0;deletable=0;editable=0;locked=1;connectable=0;" vertex="1" parent="yP72qEaSYgZoqVM0F208-94">
          <mxGeometry x="17" y="-5" width="14" height="6" as="geometry" />
        </mxCell>
        <mxCell id="yP72qEaSYgZoqVM0F208-97" value="" style="rounded=0;whiteSpace=wrap;html=1;strokeColor=none;fillColor=#000000;rotation=-45;movable=0;resizable=0;rotatable=0;deletable=0;editable=0;locked=1;connectable=0;" vertex="1" parent="yP72qEaSYgZoqVM0F208-94">
          <mxGeometry x="1" y="11" width="14" height="6" as="geometry" />
        </mxCell>
        <mxCell id="yP72qEaSYgZoqVM0F208-98" value="" style="triangle;whiteSpace=wrap;html=1;strokeColor=none;fillColor=#000000;rotation=-135;movable=0;resizable=0;rotatable=0;deletable=0;editable=0;locked=1;connectable=0;" vertex="1" parent="yP72qEaSYgZoqVM0F208-94">
          <mxGeometry x="16" width="6" height="18" as="geometry" />
        </mxCell>
        <mxCell id="yP72qEaSYgZoqVM0F208-99" value="" style="rounded=0;whiteSpace=wrap;html=1;strokeColor=none;fillColor=#000000;rotation=-45;movable=0;resizable=0;rotatable=0;deletable=0;editable=0;locked=1;connectable=0;" vertex="1" parent="yP72qEaSYgZoqVM0F208-94">
          <mxGeometry x="20" y="8" width="2" height="7" as="geometry" />
        </mxCell>
        <object label="&lt;Hub&gt;" btelligentShapeType="Hub" btelligentLibrary="ELM" id="yP72qEaSYgZoqVM0F208-100">
          <mxCell style="group;verticalAlign=middle;align=left;spacingLeft=39;fillColor=#dae8fc;strokeColor=#6c8ebf;connectable=1;" vertex="1" connectable="0" parent="1">
            <mxGeometry x="1000" y="1160" width="160" height="60" as="geometry" />
          </mxCell>
        </object>
        <object label="" ELM="Hub" id="yP72qEaSYgZoqVM0F208-101">
          <mxCell style="rounded=0;whiteSpace=wrap;html=1;fillColor=none;strokeColor=#6c8ebf;strokeWidth=2;connectable=0;noLabel=1;editable=0;" vertex="1" parent="yP72qEaSYgZoqVM0F208-100">
            <mxGeometry width="160" height="60" as="geometry" />
          </mxCell>
        </object>
        <mxCell id="yP72qEaSYgZoqVM0F208-102" value="" style="group;movable=0;resizable=0;rotatable=0;deletable=0;editable=0;locked=1;connectable=0;" vertex="1" connectable="0" parent="yP72qEaSYgZoqVM0F208-100">
          <mxGeometry x="5" y="15" width="30" height="30" as="geometry" />
        </mxCell>
        <mxCell id="yP72qEaSYgZoqVM0F208-103" value="" style="verticalLabelPosition=bottom;verticalAlign=top;html=1;shape=mxgraph.flowchart.on-page_reference;strokeColor=none;fillColor=#000000;movable=0;resizable=0;rotatable=0;deletable=0;editable=0;locked=1;connectable=0;" vertex="1" parent="yP72qEaSYgZoqVM0F208-102">
          <mxGeometry width="30" height="30" as="geometry" />
        </mxCell>
        <mxCell id="yP72qEaSYgZoqVM0F208-104" value="" style="verticalLabelPosition=bottom;verticalAlign=top;html=1;shape=mxgraph.flowchart.on-page_reference;strokeColor=none;fillColor=#FFFFFF;movable=0;resizable=0;rotatable=0;deletable=0;editable=0;locked=1;connectable=0;" vertex="1" parent="yP72qEaSYgZoqVM0F208-102">
          <mxGeometry x="10" y="10" width="10" height="10" as="geometry" />
        </mxCell>
        <mxCell id="yP72qEaSYgZoqVM0F208-105" value="" style="triangle;whiteSpace=wrap;html=1;strokeColor=none;rounded=0;movable=0;resizable=0;rotatable=0;deletable=0;editable=0;locked=1;connectable=0;" vertex="1" parent="yP72qEaSYgZoqVM0F208-102">
          <mxGeometry x="22" y="10" width="6" height="10" as="geometry" />
        </mxCell>
        <mxCell id="yP72qEaSYgZoqVM0F208-106" value="" style="triangle;whiteSpace=wrap;html=1;rounded=0;rotation=-180;strokeColor=none;movable=0;resizable=0;rotatable=0;deletable=0;editable=0;locked=1;connectable=0;" vertex="1" parent="yP72qEaSYgZoqVM0F208-102">
          <mxGeometry x="2" y="10" width="6" height="10" as="geometry" />
        </mxCell>
        <mxCell id="yP72qEaSYgZoqVM0F208-107" value="" style="triangle;whiteSpace=wrap;html=1;rounded=0;rotation=90;strokeColor=none;movable=0;resizable=0;rotatable=0;deletable=0;editable=0;locked=1;connectable=0;" vertex="1" parent="yP72qEaSYgZoqVM0F208-102">
          <mxGeometry x="12" y="20" width="6" height="10" as="geometry" />
        </mxCell>
        <mxCell id="yP72qEaSYgZoqVM0F208-108" value="" style="triangle;whiteSpace=wrap;html=1;rounded=0;rotation=-90;strokeColor=none;movable=0;resizable=0;rotatable=0;deletable=0;editable=0;locked=1;connectable=0;" vertex="1" parent="yP72qEaSYgZoqVM0F208-102">
          <mxGeometry x="12" width="6" height="10" as="geometry" />
        </mxCell>
        <UserObject label="" btelligentShapeType="Sat-to-Hub" btelligentLibrary="ELM" id="yP72qEaSYgZoqVM0F208-109">
          <mxCell style="vsdxID=5;startArrow=none;endArrow=block;startSize=10;endSize=10;strokeColor=#4D4D4D;spacingTop=2;spacingBottom=2;spacingLeft=2;spacingRight=2;verticalAlign=middle;html=1;labelBackgroundColor=#FFFFFF;rounded=1;jumpStyle=arc;startFill=0;endFill=1;fontStyle=2;labelBorderColor=none;edgeStyle=orthogonalEdgeStyle;strokeWidth=2;" edge="1" source="yP72qEaSYgZoqVM0F208-92" target="yP72qEaSYgZoqVM0F208-100" parent="1">
            <mxGeometry relative="1" as="geometry">
              <mxPoint x="1210" y="1120" as="sourcePoint" />
              <mxPoint x="1250" y="1120" as="targetPoint" />
              <mxPoint as="offset" />
            </mxGeometry>
          </mxCell>
        </UserObject>
        <object label="Link" btelligentShapeType="Link" btelligentLibrary="ELM" id="yP72qEaSYgZoqVM0F208-110">
          <mxCell style="group;verticalAlign=middle;align=left;spacingLeft=39;fillColor=#f8cecc;strokeColor=none;connectable=1;" vertex="1" connectable="0" parent="1">
            <mxGeometry x="760" y="1160" width="160" height="60" as="geometry" />
          </mxCell>
        </object>
        <object label="" ELM="Link" id="yP72qEaSYgZoqVM0F208-111">
          <mxCell style="rounded=1;whiteSpace=wrap;html=1;fillColor=none;strokeColor=#b85450;strokeWidth=2;arcSize=24;noLabel=1;connectable=0;editable=0;" vertex="1" parent="yP72qEaSYgZoqVM0F208-110">
            <mxGeometry width="160" height="60" as="geometry" />
          </mxCell>
        </object>
        <mxCell id="yP72qEaSYgZoqVM0F208-112" value="" style="group;rotation=60;movable=0;resizable=0;rotatable=0;deletable=0;editable=0;locked=1;connectable=0;" vertex="1" connectable="0" parent="yP72qEaSYgZoqVM0F208-110">
          <mxGeometry y="25" width="38" height="10" as="geometry" />
        </mxCell>
        <mxCell id="yP72qEaSYgZoqVM0F208-113" value="" style="strokeWidth=2;html=1;shape=mxgraph.flowchart.terminator;whiteSpace=wrap;rotation=60;movable=0;resizable=0;rotatable=0;deletable=0;editable=0;locked=1;connectable=0;" vertex="1" parent="yP72qEaSYgZoqVM0F208-112">
          <mxGeometry x="6" y="-10" width="16" height="10" as="geometry" />
        </mxCell>
        <mxCell id="yP72qEaSYgZoqVM0F208-114" value="" style="strokeWidth=2;html=1;shape=mxgraph.flowchart.terminator;whiteSpace=wrap;rotation=60;movable=0;resizable=0;rotatable=0;deletable=0;editable=0;locked=1;connectable=0;" vertex="1" parent="yP72qEaSYgZoqVM0F208-112">
          <mxGeometry x="17" y="10" width="16" height="10" as="geometry" />
        </mxCell>
        <mxCell id="yP72qEaSYgZoqVM0F208-115" value="" style="verticalLabelPosition=bottom;verticalAlign=top;html=1;shape=mxgraph.basic.rect;fillColor2=none;strokeWidth=1;size=20;indent=5;fillColor=#FFFFFF;strokeColor=none;rotation=60;movable=0;resizable=0;rotatable=0;deletable=0;editable=0;locked=1;connectable=0;" vertex="1" parent="yP72qEaSYgZoqVM0F208-112">
          <mxGeometry x="9" y="2" width="20" height="6" as="geometry" />
        </mxCell>
        <mxCell id="yP72qEaSYgZoqVM0F208-116" value="" style="strokeWidth=3;html=1;shape=mxgraph.flowchart.terminator;whiteSpace=wrap;rotation=60;movable=0;resizable=0;rotatable=0;deletable=0;editable=0;locked=1;connectable=0;" vertex="1" parent="yP72qEaSYgZoqVM0F208-112">
          <mxGeometry x="11" y="4" width="16" height="2" as="geometry" />
        </mxCell>
        <object label="" btelligentShapeType="Hub-to-Link-1" btelligentLibrary="ELM" id="yP72qEaSYgZoqVM0F208-117">
          <mxCell style="endArrow=ERone;html=1;rounded=1;endSize=20;endFill=0;edgeStyle=orthogonalEdgeStyle;strokeWidth=2;strokeColor=#4D4D4D;" edge="1" parent="1" source="yP72qEaSYgZoqVM0F208-73" target="yP72qEaSYgZoqVM0F208-110">
            <mxGeometry width="50" height="50" relative="1" as="geometry">
              <mxPoint x="490" y="1070" as="sourcePoint" />
              <mxPoint x="490" y="1010" as="targetPoint" />
            </mxGeometry>
          </mxCell>
        </object>
        <object label="" btelligentShapeType="Hub-to-Link-N" btelligentLibrary="ELM" id="yP72qEaSYgZoqVM0F208-118">
          <mxCell style="endArrow=ERmany;html=1;rounded=1;endSize=20;endFill=0;edgeStyle=orthogonalEdgeStyle;curved=0;strokeWidth=2;strokeColor=#4D4D4D;" edge="1" parent="1" source="yP72qEaSYgZoqVM0F208-100" target="yP72qEaSYgZoqVM0F208-110">
            <mxGeometry width="50" height="50" relative="1" as="geometry">
              <mxPoint x="490" y="1010" as="sourcePoint" />
              <mxPoint x="490" y="1070" as="targetPoint" />
            </mxGeometry>
          </mxCell>
        </object>
        <object label="Process Status" btelligentShapeType="Satellite" btelligentLibrary="ELM" id="yP72qEaSYgZoqVM0F208-119">
          <mxCell style="group;verticalAlign=middle;align=left;spacingLeft=39;fillColor=#fff2cc;strokeColor=none;connectable=1;" vertex="1" connectable="0" parent="1">
            <mxGeometry x="280" y="880" width="160" height="60" as="geometry" />
          </mxCell>
        </object>
        <object label="" ELM="Satellite" id="yP72qEaSYgZoqVM0F208-120">
          <mxCell style="shape=delay;whiteSpace=wrap;html=1;rotation=-180;fillColor=none;strokeColor=#d6b656;backgroundOutline=0;connectable=0;noLabel=1;fillOpacity=100;strokeWidth=2;editable=0;" vertex="1" parent="yP72qEaSYgZoqVM0F208-119">
            <mxGeometry width="160" height="60" as="geometry" />
          </mxCell>
        </object>
        <mxCell id="yP72qEaSYgZoqVM0F208-121" value="" style="group;rotation=-45;movable=0;resizable=0;rotatable=0;deletable=0;editable=0;locked=1;connectable=0;" vertex="1" connectable="0" parent="yP72qEaSYgZoqVM0F208-119">
          <mxGeometry x="4" y="22" width="36" height="16" as="geometry" />
        </mxCell>
        <mxCell id="yP72qEaSYgZoqVM0F208-122" value="" style="rounded=0;whiteSpace=wrap;html=1;strokeColor=none;fillColor=#000000;rotation=-45;movable=0;resizable=0;rotatable=0;deletable=0;editable=0;locked=1;connectable=0;" vertex="1" parent="yP72qEaSYgZoqVM0F208-121">
          <mxGeometry x="13" y="1" width="6" height="10" as="geometry" />
        </mxCell>
        <mxCell id="yP72qEaSYgZoqVM0F208-123" value="" style="rounded=0;whiteSpace=wrap;html=1;strokeColor=none;fillColor=#000000;rotation=-45;movable=0;resizable=0;rotatable=0;deletable=0;editable=0;locked=1;connectable=0;" vertex="1" parent="yP72qEaSYgZoqVM0F208-121">
          <mxGeometry x="17" y="-5" width="14" height="6" as="geometry" />
        </mxCell>
        <mxCell id="yP72qEaSYgZoqVM0F208-124" value="" style="rounded=0;whiteSpace=wrap;html=1;strokeColor=none;fillColor=#000000;rotation=-45;movable=0;resizable=0;rotatable=0;deletable=0;editable=0;locked=1;connectable=0;" vertex="1" parent="yP72qEaSYgZoqVM0F208-121">
          <mxGeometry x="1" y="11" width="14" height="6" as="geometry" />
        </mxCell>
        <mxCell id="yP72qEaSYgZoqVM0F208-125" value="" style="triangle;whiteSpace=wrap;html=1;strokeColor=none;fillColor=#000000;rotation=-135;movable=0;resizable=0;rotatable=0;deletable=0;editable=0;locked=1;connectable=0;" vertex="1" parent="yP72qEaSYgZoqVM0F208-121">
          <mxGeometry x="16" width="6" height="18" as="geometry" />
        </mxCell>
        <mxCell id="yP72qEaSYgZoqVM0F208-126" value="" style="rounded=0;whiteSpace=wrap;html=1;strokeColor=none;fillColor=#000000;rotation=-45;movable=0;resizable=0;rotatable=0;deletable=0;editable=0;locked=1;connectable=0;" vertex="1" parent="yP72qEaSYgZoqVM0F208-121">
          <mxGeometry x="20" y="8" width="2" height="7" as="geometry" />
        </mxCell>
        <UserObject label="" btelligentShapeType="Sat-to-Hub" btelligentLibrary="ELM" id="yP72qEaSYgZoqVM0F208-127">
          <mxCell style="vsdxID=5;startArrow=none;endArrow=block;startSize=10;endSize=10;strokeColor=#4D4D4D;spacingTop=2;spacingBottom=2;spacingLeft=2;spacingRight=2;verticalAlign=middle;html=1;labelBackgroundColor=#FFFFFF;rounded=1;jumpStyle=arc;startFill=0;endFill=1;fontStyle=2;labelBorderColor=none;edgeStyle=orthogonalEdgeStyle;strokeWidth=2;" edge="1" parent="1" source="yP72qEaSYgZoqVM0F208-119" target="yP72qEaSYgZoqVM0F208-52">
            <mxGeometry relative="1" as="geometry">
              <mxPoint x="470" y="1100" as="sourcePoint" />
              <mxPoint x="510" y="1100" as="targetPoint" />
              <mxPoint as="offset" />
            </mxGeometry>
          </mxCell>
        </UserObject>
        <object label="Process Status" btelligentShapeType="Satellite" btelligentLibrary="ELM" id="yP72qEaSYgZoqVM0F208-144">
          <mxCell style="group;verticalAlign=middle;align=left;spacingLeft=39;fillColor=#fff2cc;strokeColor=none;connectable=1;" vertex="1" connectable="0" parent="1">
            <mxGeometry x="280" y="1160" width="160" height="60" as="geometry" />
          </mxCell>
        </object>
        <object label="" ELM="Satellite" id="yP72qEaSYgZoqVM0F208-145">
          <mxCell style="shape=delay;whiteSpace=wrap;html=1;rotation=-180;fillColor=none;strokeColor=#d6b656;backgroundOutline=0;connectable=0;noLabel=1;fillOpacity=100;strokeWidth=2;editable=0;" vertex="1" parent="yP72qEaSYgZoqVM0F208-144">
            <mxGeometry width="160" height="60" as="geometry" />
          </mxCell>
        </object>
        <mxCell id="yP72qEaSYgZoqVM0F208-146" value="" style="group;rotation=-45;movable=0;resizable=0;rotatable=0;deletable=0;editable=0;locked=1;connectable=0;" vertex="1" connectable="0" parent="yP72qEaSYgZoqVM0F208-144">
          <mxGeometry x="4" y="22" width="36" height="16" as="geometry" />
        </mxCell>
        <mxCell id="yP72qEaSYgZoqVM0F208-147" value="" style="rounded=0;whiteSpace=wrap;html=1;strokeColor=none;fillColor=#000000;rotation=-45;movable=0;resizable=0;rotatable=0;deletable=0;editable=0;locked=1;connectable=0;" vertex="1" parent="yP72qEaSYgZoqVM0F208-146">
          <mxGeometry x="13" y="1" width="6" height="10" as="geometry" />
        </mxCell>
        <mxCell id="yP72qEaSYgZoqVM0F208-148" value="" style="rounded=0;whiteSpace=wrap;html=1;strokeColor=none;fillColor=#000000;rotation=-45;movable=0;resizable=0;rotatable=0;deletable=0;editable=0;locked=1;connectable=0;" vertex="1" parent="yP72qEaSYgZoqVM0F208-146">
          <mxGeometry x="17" y="-5" width="14" height="6" as="geometry" />
        </mxCell>
        <mxCell id="yP72qEaSYgZoqVM0F208-149" value="" style="rounded=0;whiteSpace=wrap;html=1;strokeColor=none;fillColor=#000000;rotation=-45;movable=0;resizable=0;rotatable=0;deletable=0;editable=0;locked=1;connectable=0;" vertex="1" parent="yP72qEaSYgZoqVM0F208-146">
          <mxGeometry x="1" y="11" width="14" height="6" as="geometry" />
        </mxCell>
        <mxCell id="yP72qEaSYgZoqVM0F208-150" value="" style="triangle;whiteSpace=wrap;html=1;strokeColor=none;fillColor=#000000;rotation=-135;movable=0;resizable=0;rotatable=0;deletable=0;editable=0;locked=1;connectable=0;" vertex="1" parent="yP72qEaSYgZoqVM0F208-146">
          <mxGeometry x="16" width="6" height="18" as="geometry" />
        </mxCell>
        <mxCell id="yP72qEaSYgZoqVM0F208-151" value="" style="rounded=0;whiteSpace=wrap;html=1;strokeColor=none;fillColor=#000000;rotation=-45;movable=0;resizable=0;rotatable=0;deletable=0;editable=0;locked=1;connectable=0;" vertex="1" parent="yP72qEaSYgZoqVM0F208-146">
          <mxGeometry x="20" y="8" width="2" height="7" as="geometry" />
        </mxCell>
        <UserObject label="" btelligentShapeType="Sat-to-Hub" btelligentLibrary="ELM" id="yP72qEaSYgZoqVM0F208-152">
          <mxCell style="vsdxID=5;startArrow=none;endArrow=block;startSize=10;endSize=10;strokeColor=#4D4D4D;spacingTop=2;spacingBottom=2;spacingLeft=2;spacingRight=2;verticalAlign=middle;html=1;labelBackgroundColor=#FFFFFF;rounded=1;jumpStyle=arc;startFill=0;endFill=1;fontStyle=2;labelBorderColor=none;edgeStyle=orthogonalEdgeStyle;strokeWidth=2;" edge="1" parent="1" source="yP72qEaSYgZoqVM0F208-144" target="yP72qEaSYgZoqVM0F208-73">
            <mxGeometry relative="1" as="geometry">
              <mxPoint x="420" y="1390" as="sourcePoint" />
              <mxPoint x="470" y="1200" as="targetPoint" />
              <mxPoint as="offset" />
            </mxGeometry>
          </mxCell>
        </UserObject>
        <object label="Process Status" btelligentShapeType="Reference" btelligentLibrary="ELM" id="yP72qEaSYgZoqVM0F208-153">
          <mxCell style="group;verticalAlign=middle;align=left;spacingLeft=39;fillColor=#f5f5f5;fontColor=#000000;strokeColor=none;connectable=1;" vertex="1" connectable="0" parent="1">
            <mxGeometry x="80" y="1020" width="160" height="60" as="geometry" />
          </mxCell>
        </object>
        <object label="" ELM="non-historic Reference Table" id="yP72qEaSYgZoqVM0F208-154">
          <mxCell style="rounded=0;whiteSpace=wrap;html=1;fillColor=none;fontColor=#333333;strokeColor=#999999;strokeWidth=2;connectable=0;noLabel=1;editable=0;" vertex="1" parent="yP72qEaSYgZoqVM0F208-153">
            <mxGeometry width="160" height="60" as="geometry" />
          </mxCell>
        </object>
        <mxCell id="yP72qEaSYgZoqVM0F208-155" value="" style="group;movable=0;resizable=0;rotatable=0;deletable=0;editable=0;locked=1;connectable=0;" vertex="1" connectable="0" parent="yP72qEaSYgZoqVM0F208-153">
          <mxGeometry x="7" y="15" width="24" height="30" as="geometry" />
        </mxCell>
        <mxCell id="yP72qEaSYgZoqVM0F208-156" value="" style="rounded=0;whiteSpace=wrap;html=1;" vertex="1" parent="yP72qEaSYgZoqVM0F208-155">
          <mxGeometry x="8" width="8" height="10" as="geometry" />
        </mxCell>
        <mxCell id="yP72qEaSYgZoqVM0F208-157" value="" style="rounded=0;whiteSpace=wrap;html=1;" vertex="1" parent="yP72qEaSYgZoqVM0F208-155">
          <mxGeometry x="16" width="8" height="10" as="geometry" />
        </mxCell>
        <mxCell id="yP72qEaSYgZoqVM0F208-158" value="" style="rounded=0;whiteSpace=wrap;html=1;" vertex="1" parent="yP72qEaSYgZoqVM0F208-155">
          <mxGeometry x="8" y="10" width="8" height="10" as="geometry" />
        </mxCell>
        <mxCell id="yP72qEaSYgZoqVM0F208-159" value="" style="rounded=0;whiteSpace=wrap;html=1;" vertex="1" parent="yP72qEaSYgZoqVM0F208-155">
          <mxGeometry x="16" y="10" width="8" height="10" as="geometry" />
        </mxCell>
        <mxCell id="yP72qEaSYgZoqVM0F208-160" value="" style="rounded=0;whiteSpace=wrap;html=1;" vertex="1" parent="yP72qEaSYgZoqVM0F208-155">
          <mxGeometry x="8" y="20" width="8" height="10" as="geometry" />
        </mxCell>
        <mxCell id="yP72qEaSYgZoqVM0F208-161" value="" style="rounded=0;whiteSpace=wrap;html=1;" vertex="1" parent="yP72qEaSYgZoqVM0F208-155">
          <mxGeometry x="16" y="20" width="8" height="10" as="geometry" />
        </mxCell>
        <mxCell id="yP72qEaSYgZoqVM0F208-162" value="" style="rounded=0;whiteSpace=wrap;html=1;fillColor=#999999;" vertex="1" parent="yP72qEaSYgZoqVM0F208-155">
          <mxGeometry width="8" height="10" as="geometry" />
        </mxCell>
        <mxCell id="yP72qEaSYgZoqVM0F208-163" value="" style="rounded=0;whiteSpace=wrap;html=1;fillColor=#999999;" vertex="1" parent="yP72qEaSYgZoqVM0F208-155">
          <mxGeometry y="10" width="8" height="10" as="geometry" />
        </mxCell>
        <mxCell id="yP72qEaSYgZoqVM0F208-164" value="" style="rounded=0;whiteSpace=wrap;html=1;fillColor=#999999;" vertex="1" parent="yP72qEaSYgZoqVM0F208-155">
          <mxGeometry y="20" width="8" height="10" as="geometry" />
        </mxCell>
        <UserObject label="" btelligentShapeType="Sat-to-Hub" btelligentLibrary="ELM" id="yP72qEaSYgZoqVM0F208-165">
          <mxCell style="vsdxID=5;startArrow=none;endArrow=block;startSize=10;endSize=10;strokeColor=#4D4D4D;spacingTop=2;spacingBottom=2;spacingLeft=2;spacingRight=2;verticalAlign=middle;html=1;labelBackgroundColor=#FFFFFF;rounded=1;jumpStyle=arc;startFill=0;endFill=1;fontStyle=2;labelBorderColor=none;edgeStyle=orthogonalEdgeStyle;strokeWidth=2;" edge="1" parent="1" source="yP72qEaSYgZoqVM0F208-153" target="yP72qEaSYgZoqVM0F208-119">
            <mxGeometry relative="1" as="geometry">
              <mxPoint x="470" y="1100" as="sourcePoint" />
              <mxPoint x="510" y="1100" as="targetPoint" />
              <mxPoint as="offset" />
              <Array as="points">
                <mxPoint x="160" y="910" />
              </Array>
            </mxGeometry>
          </mxCell>
        </UserObject>
        <UserObject label="" btelligentShapeType="Sat-to-Hub" btelligentLibrary="ELM" id="yP72qEaSYgZoqVM0F208-166">
          <mxCell style="vsdxID=5;startArrow=none;endArrow=block;startSize=10;endSize=10;strokeColor=#4D4D4D;spacingTop=2;spacingBottom=2;spacingLeft=2;spacingRight=2;verticalAlign=middle;html=1;labelBackgroundColor=#FFFFFF;rounded=1;jumpStyle=arc;startFill=0;endFill=1;fontStyle=2;labelBorderColor=none;edgeStyle=orthogonalEdgeStyle;strokeWidth=2;" edge="1" parent="1" source="yP72qEaSYgZoqVM0F208-153" target="yP72qEaSYgZoqVM0F208-144">
            <mxGeometry relative="1" as="geometry">
              <mxPoint x="170" y="1050" as="sourcePoint" />
              <mxPoint x="290" y="920" as="targetPoint" />
              <mxPoint as="offset" />
              <Array as="points">
                <mxPoint x="170" y="1190" />
              </Array>
            </mxGeometry>
          </mxCell>
        </UserObject>
        <object label="" btelligentShapeType="Hub-to-Link-N" btelligentLibrary="ELM" id="yP72qEaSYgZoqVM0F208-167">
          <mxCell style="endArrow=ERmany;html=1;rounded=1;endSize=20;endFill=0;edgeStyle=orthogonalEdgeStyle;curved=0;strokeWidth=2;strokeColor=#4D4D4D;" edge="1" parent="1" source="yP72qEaSYgZoqVM0F208-9" target="yP72qEaSYgZoqVM0F208-37">
            <mxGeometry width="50" height="50" relative="1" as="geometry">
              <mxPoint x="490" y="1070" as="sourcePoint" />
              <mxPoint x="490" y="1130" as="targetPoint" />
            </mxGeometry>
          </mxCell>
        </object>
      </root>
    </mxGraphModel>
  </diagram>
</mxfile>
